# xmcd
#
# Track frame offsets:
# 182
# 20472
# 36980
# 57490
# 75265
# 98025
# 113997
# 132755
# 150472
# 156807
# 176515
# 193655
# 215035
#
# Disc length: 3102 seconds
#
#
# Revision: 0
# Processed by: cddbd v1.4PL0 Copyright (c) Steve Scherf et al.
# Submitted via: FreeRIP 2.00 
#
DISCID=a60c1c0d
DTITLE=Ray Lema - stoptime
DYEAR=1997
DGENRE=R&B
TTITLE0=satana
TTITLE1=nguelguediga
TTITLE2=cracies
TTITLE3=tossanga
TTITLE4=stoptime
TTITLE5=zolana
TTITLE6=legrandsorcier
TTITLE7=quecacesse
TTITLE8=goodmorningzaire
TTITLE9=malebovice
TTITLE10=neddo
TTITLE11=separation
TTITLE12=magictouch
EXTD=
EXTT0=
EXTT1=
EXTT2=
EXTT3=
EXTT4=
EXTT5=
EXTT6=
EXTT7=
EXTT8=
EXTT9=
EXTT10=
EXTT11=
EXTT12=
PLAYORDER=
